<svg width="284" height="8" viewBox="0 0 284 8" fill="none" xmlns="http://www.w3.org/2000/svg">
<path d="M2 2.1305C2.82966 2.02473 2.70021 2.0203 4.15913 2.01007C13.2708 1.94618 22.8752 2.2037 31.8843 2.29395C94.4917 2.9211 157.426 2.94781 220.121 3.04235C229.986 3.05722 259.428 2.82985 249.711 3.12837C225.948 3.85846 200.95 3.49056 176.988 3.52408C134.105 3.58406 91.4745 3.92616 49.0102 5.02088C42.3528 5.19251 35.7868 5.40262 29.1854 5.62304C28.2872 5.65304 26.7083 5.55356 26.4865 5.70907C26.1706 5.93057 29.015 5.83032 30.3141 5.8467C52.696 6.12898 75.7402 5.95168 98.0813 5.86391C159.633 5.6221 220.887 5.12332 282 3.83376" stroke="url(#paint0_linear_264_74)" stroke-width="2.76667" stroke-linecap="round"/>
<defs>
<linearGradient id="paint0_linear_264_74" x1="21.1367" y1="2" x2="23.4997" y2="28.7961" gradientUnits="userSpaceOnUse">
<stop stop-color="#ED2076"/>
<stop offset="1" stop-color="#F0493B"/>
</linearGradient>
</defs>
</svg>
